<svg width="32" height="32" viewBox="0 0 32 32" fill="none" xmlns="http://www.w3.org/2000/svg">
<g clip-path="url(#clip0_617_8601)">
<path d="M31.1842 15.5921C31.1842 6.98088 24.2034 0 15.5921 0C6.98088 0 0 6.98088 0 15.5921C0 23.3745 5.70184 29.8252 13.1558 30.9948V20.0992H9.19691V15.5921H13.1558V12.157C13.1558 8.24921 15.4837 6.09067 19.0453 6.09067C20.7512 6.09067 22.5355 6.39521 22.5355 6.39521V10.2323H20.5694C18.6325 10.2323 18.0284 11.4343 18.0284 12.6674V15.5921H22.3528L21.6615 20.0992H18.0284V30.9948C25.4824 29.8252 31.1842 23.3747 31.1842 15.5921Z" fill="#1877F2"/>
<path d="M21.6618 20.1003L22.3531 15.5932H18.0287V12.6685C18.0287 11.4353 18.6328 10.2335 20.5698 10.2335H22.5358V6.39633C22.5358 6.39633 20.7515 6.0918 19.0455 6.0918C15.4841 6.0918 13.1562 8.25033 13.1562 12.1581V15.5932H9.19727V20.1003H13.1562V30.9959C13.9621 31.1222 14.7767 31.1856 15.5925 31.1854C16.4082 31.1856 17.2228 31.1222 18.0287 30.9959V20.1003H21.6618Z" fill="white"/>
</g>
<defs>
<clipPath id="clip0_617_8601">
<rect width="31.1842" height="31.1842" fill="white"/>
</clipPath>
</defs>
</svg>
