<svg width="32" height="32" viewBox="0 0 32 32" fill="none" xmlns="http://www.w3.org/2000/svg">
<g clip-path="url(#clip0_617_8606)">
<path d="M23.8754 0H7.3088C3.27226 0 0 3.27226 0 7.3088V23.8754C0 27.912 3.27226 31.1842 7.3088 31.1842H23.8754C27.912 31.1842 31.1842 27.912 31.1842 23.8754V7.3088C31.1842 3.27226 27.912 0 23.8754 0Z" fill="url(#paint0_radial_617_8606)"/>
<path d="M23.8754 0H7.3088C3.27226 0 0 3.27226 0 7.3088V23.8754C0 27.912 3.27226 31.1842 7.3088 31.1842H23.8754C27.912 31.1842 31.1842 27.912 31.1842 23.8754V7.3088C31.1842 3.27226 27.912 0 23.8754 0Z" fill="url(#paint1_radial_617_8606)"/>
<path d="M15.8368 5.84814C13.124 5.84814 12.7835 5.86003 11.7181 5.90848C10.6547 5.95722 9.92885 6.12553 9.29377 6.37255C8.63671 6.62766 8.07944 6.96898 7.52427 7.52435C6.9686 8.07962 6.62729 8.63689 6.37138 9.29365C6.12366 9.92893 5.95515 10.6551 5.9073 11.718C5.85965 12.7835 5.84717 13.1241 5.84717 15.8369C5.84717 18.5498 5.85915 18.8892 5.9075 19.9546C5.95644 21.018 6.12475 21.7439 6.37157 22.3789C6.62689 23.036 6.9682 23.5933 7.52357 24.1484C8.07864 24.7041 8.63591 25.0462 9.29247 25.3013C9.92805 25.5484 10.654 25.7167 11.7172 25.7654C12.7827 25.8139 13.1229 25.8257 15.8356 25.8257C18.5486 25.8257 18.888 25.8139 19.9534 25.7654C21.0168 25.7167 21.7435 25.5484 22.3791 25.3013C23.0358 25.0462 23.5923 24.7041 24.1473 24.1484C24.7029 23.5933 25.0442 23.036 25.3002 22.3792C25.5457 21.7439 25.7143 21.0178 25.7642 19.9548C25.8121 18.8894 25.8246 18.5498 25.8246 15.8369C25.8246 13.1241 25.8121 12.7837 25.7642 11.7182C25.7143 10.6548 25.5457 9.92903 25.3002 9.29395C25.0442 8.63689 24.7029 8.07962 24.1473 7.52435C23.5917 6.96878 23.036 6.62746 22.3785 6.37265C21.7417 6.12553 21.0154 5.95712 19.952 5.90848C18.8865 5.86003 18.5473 5.84814 15.8337 5.84814H15.8368ZM14.9407 7.64821C15.2067 7.64781 15.5034 7.64821 15.8368 7.64821C18.5039 7.64821 18.8199 7.6578 19.8731 7.70564C20.847 7.75019 21.3756 7.91291 21.7277 8.04965C22.1939 8.23065 22.5262 8.4471 22.8756 8.79681C23.2252 9.14641 23.4416 9.47934 23.6231 9.94551C23.7598 10.2971 23.9227 10.8257 23.9671 11.7996C24.0149 12.8526 24.0253 13.1689 24.0253 15.8346C24.0253 18.5004 24.0149 18.8168 23.9671 19.8697C23.9225 20.8436 23.7598 21.3722 23.6231 21.7239C23.4421 22.1901 23.2252 22.522 22.8756 22.8714C22.526 23.221 22.1941 23.4373 21.7277 23.6184C21.376 23.7558 20.847 23.9181 19.8731 23.9627C18.8201 24.0105 18.5039 24.0209 15.8368 24.0209C13.1696 24.0209 12.8534 24.0105 11.8005 23.9627C10.8266 23.9177 10.298 23.755 9.94563 23.6182C9.47956 23.4371 9.14654 23.2208 8.79693 22.8712C8.44733 22.5216 8.23097 22.1895 8.04948 21.7231C7.91273 21.3714 7.74982 20.8428 7.70547 19.8689C7.65762 18.8159 7.64803 18.4996 7.64803 15.8321C7.64803 13.1647 7.65762 12.8501 7.70547 11.7971C7.75002 10.8232 7.91273 10.2946 8.04948 9.94251C8.23057 9.47634 8.44733 9.14342 8.79703 8.79381C9.14674 8.44421 9.47956 8.22775 9.94573 8.04636C10.2978 7.90901 10.8266 7.7467 11.8005 7.70195C12.722 7.66029 13.0791 7.64781 14.9407 7.64571V7.64821ZM21.1687 9.30673C20.507 9.30673 19.9701 9.84312 19.9701 10.505C19.9701 11.1667 20.507 11.7036 21.1687 11.7036C21.8305 11.7036 22.3674 11.1667 22.3674 10.505C22.3674 9.84322 21.8305 9.30633 21.1687 9.30633V9.30673ZM15.8368 10.7072C13.004 10.7072 10.7072 13.004 10.7072 15.8369C10.7072 18.6698 13.004 20.9655 15.8368 20.9655C18.6697 20.9655 20.9657 18.6698 20.9657 15.8369C20.9657 13.0041 18.6695 10.7072 15.8366 10.7072H15.8368ZM15.8368 12.5073C17.6756 12.5073 19.1664 13.9979 19.1664 15.8369C19.1664 17.6758 17.6756 19.1666 15.8368 19.1666C13.9979 19.1666 12.5072 17.6758 12.5072 15.8369C12.5072 13.9979 13.9978 12.5073 15.8368 12.5073Z" fill="white"/>
</g>
<defs>
<radialGradient id="paint0_radial_617_8606" cx="0" cy="0" r="1" gradientUnits="userSpaceOnUse" gradientTransform="translate(8.28331 33.586) rotate(-90) scale(30.9059 28.7449)">
<stop stop-color="#FFDD55"/>
<stop offset="0.1" stop-color="#FFDD55"/>
<stop offset="0.5" stop-color="#FF543E"/>
<stop offset="1" stop-color="#C837AB"/>
</radialGradient>
<radialGradient id="paint1_radial_617_8606" cx="0" cy="0" r="1" gradientUnits="userSpaceOnUse" gradientTransform="translate(-5.22348 2.24636) rotate(78.681) scale(13.8151 56.9463)">
<stop stop-color="#3771C8"/>
<stop offset="0.128" stop-color="#3771C8"/>
<stop offset="1" stop-color="#6600FF" stop-opacity="0"/>
</radialGradient>
<clipPath id="clip0_617_8606">
<rect width="31.1842" height="31.1842" rx="15.5921" fill="white"/>
</clipPath>
</defs>
</svg>
