<svg width="33" height="33" viewBox="0 0 33 33" fill="none" xmlns="http://www.w3.org/2000/svg">
<path d="M16.3716 0.655273C7.69135 0.655273 0.654785 7.69184 0.654785 16.3721C0.654785 25.0524 7.69135 32.089 16.3716 32.089C25.0519 32.089 32.0885 25.0524 32.0885 16.3721C32.0885 7.69184 25.0519 0.655273 16.3716 0.655273ZM12.5243 22.8864H9.34162V12.6443H12.5243V22.8864ZM10.9133 11.3869C9.90808 11.3869 9.25813 10.6748 9.25813 9.79397C9.25813 8.89516 9.92773 8.20428 10.9542 8.20428C11.9807 8.20428 12.6094 8.89516 12.6291 9.79397C12.6291 10.6748 11.9807 11.3869 10.9133 11.3869ZM24.1482 22.8864H20.9655V17.2104C20.9655 15.8892 20.5039 14.992 19.3529 14.992C18.4738 14.992 17.9515 15.5994 17.7207 16.1839C17.6355 16.3918 17.6143 16.6865 17.6143 16.9795V22.8848H14.43V15.9104C14.43 14.6318 14.389 13.5627 14.3465 12.6426H17.1116L17.2574 14.0654H17.3212C17.7403 13.3974 18.7668 12.4118 20.4842 12.4118C22.5782 12.4118 24.1482 13.8149 24.1482 16.8305V22.8864Z" fill="#15A3FC"/>
</svg>
