<svg width="215" height="53" viewBox="0 0 215 53" fill="none" xmlns="http://www.w3.org/2000/svg">
<path d="M33.3602 1.39682L28.1313 0.000488281L23.7249 16.3898L19.7467 1.59342L14.5176 2.98976L18.8159 18.9762L8.10998 8.30671L4.28213 12.1216L16.0252 23.8248L1.40109 19.9196L0 25.1307L15.9786 29.3976C15.7957 28.6112 15.6989 27.7919 15.6989 26.95C15.6989 20.9908 20.5462 16.1599 26.5257 16.1599C32.5052 16.1599 37.3525 20.9908 37.3525 26.95C37.3525 27.7864 37.257 28.6008 37.0763 29.3825L51.5979 33.2603L52.9989 28.0492L36.9568 23.7653L51.5818 19.8598L50.1806 14.6487L34.1392 18.9323L44.845 8.26291L41.0171 4.44806L29.437 15.9889L33.3602 1.39682Z" fill="#155DFC"/>
<path d="M37.0626 29.4434C36.6142 31.3322 35.6678 33.0291 34.3691 34.3887L44.8894 44.8733L48.7173 41.0585L37.0626 29.4434Z" fill="#155DFC"/>
<path d="M34.2622 34.498C32.9479 35.8359 31.2869 36.8342 29.4243 37.3487L33.2524 51.5869L38.4813 50.1905L34.2622 34.498Z" fill="#155DFC"/>
<path d="M29.2289 37.4016C28.3647 37.623 27.459 37.7406 26.5255 37.7406C25.5255 37.7406 24.5571 37.6055 23.6377 37.3525L19.8062 51.6037L25.035 52.9999L29.2289 37.4016Z" fill="#155DFC"/>
<path d="M23.4535 37.2986C21.6193 36.7585 19.9879 35.7474 18.7004 34.4058L8.1543 44.9161L11.9821 48.731L23.4535 37.2986Z" fill="#155DFC"/>
<path d="M18.6124 34.3133C17.347 32.9632 16.4252 31.2889 15.9865 29.4292L1.41748 33.3197L2.81856 38.5308L18.6124 34.3133Z" fill="#155DFC"/>
<path d="M76.1701 40.5V11.5915H94.6896V15.9814H81.4069V23.8296H93.4192V28.2195H81.4069V40.5H76.1701ZM103.107 11.5915V40.5H97.8706V11.5915H103.107ZM130.945 11.5915V40.5H126.287L112.665 20.8089H112.425V40.5H107.188V11.5915H111.875L125.482 31.2967H125.736V11.5915H130.945ZM160.892 26.0458C160.892 29.1606 160.309 31.8284 159.142 34.0492C157.984 36.2607 156.404 37.9545 154.399 39.1308C152.404 40.3071 150.141 40.8952 147.61 40.8952C145.078 40.8952 142.81 40.3071 140.806 39.1308C138.811 37.9451 137.23 36.2465 136.063 34.0351C134.906 31.8143 134.327 29.1512 134.327 26.0458C134.327 22.9309 134.906 20.2678 136.063 18.0564C137.23 15.8356 138.811 14.137 140.806 12.9607C142.81 11.7844 145.078 11.1963 147.61 11.1963C150.141 11.1963 152.404 11.7844 154.399 12.9607C156.404 14.137 157.984 15.8356 159.142 18.0564C160.309 20.2678 160.892 22.9309 160.892 26.0458ZM155.627 26.0458C155.627 23.8532 155.284 22.004 154.597 20.4984C153.919 18.9833 152.978 17.84 151.774 17.0683C150.569 16.2873 149.181 15.8967 147.61 15.8967C146.038 15.8967 144.65 16.2873 143.446 17.0683C142.241 17.84 141.295 18.9833 140.608 20.4984C139.931 22.004 139.592 23.8532 139.592 26.0458C139.592 28.2384 139.931 30.0922 140.608 31.6073C141.295 33.1129 142.241 34.2563 143.446 35.0373C144.65 35.809 146.038 36.1948 147.61 36.1948C149.181 36.1948 150.569 35.809 151.774 35.0373C152.978 34.2563 153.919 33.1129 154.597 31.6073C155.284 30.0922 155.627 28.2384 155.627 26.0458ZM164.253 40.5V11.5915H175.094C177.315 11.5915 179.178 11.9773 180.684 12.749C182.199 13.5206 183.342 14.6028 184.114 15.9955C184.895 17.3789 185.285 18.9927 185.285 20.8371C185.285 22.691 184.89 24.3001 184.1 25.6646C183.319 27.0197 182.166 28.069 180.641 28.8124C179.117 29.5464 177.244 29.9134 175.023 29.9134H167.302V25.5658H174.318C175.616 25.5658 176.68 25.387 177.508 25.0294C178.336 24.6624 178.948 24.1308 179.343 23.4344C179.747 22.7286 179.95 21.8629 179.95 20.8371C179.95 19.8114 179.747 18.9363 179.343 18.2117C178.938 17.4777 178.322 16.9225 177.494 16.546C176.666 16.1602 175.597 15.9673 174.289 15.9673H169.49V40.5H164.253ZM179.187 27.4008L186.344 40.5H180.5L173.471 27.4008H179.187ZM192.228 40.5H186.638L196.816 11.5915H203.281L213.472 40.5H207.882L200.161 17.52H199.935L192.228 40.5ZM192.412 29.1653H207.656V33.3717H192.412V29.1653Z" fill="#155DFC"/>
</svg>
