<svg width="668" height="981" viewBox="0 0 668 981" fill="none" xmlns="http://www.w3.org/2000/svg">
<g clip-path="url(#clip0_417_17817)">
<path d="M0 42C0 18.8041 18.804 0 42 0H668V981H42C18.804 981 0 962.196 0 939V42Z" fill="#1D61E7"/>
<path d="M536.177 874.417L598.299 839.597C603.361 836.759 609.564 836.886 614.507 839.928L670.386 874.314C675.118 877.226 678 882.385 678 887.941V958.568C678 963.845 675.398 968.783 671.045 971.766L615.136 1010.08C609.89 1013.68 603.014 1013.82 597.619 1010.46L535.528 971.699C530.845 968.776 528 963.646 528 958.126V888.374C528 882.585 531.127 877.247 536.177 874.417Z" stroke="white" stroke-opacity="0.2" stroke-width="4"/>
<path d="M-34.0367 888.746L11.2675 863.352C14.9598 861.283 19.4833 861.375 23.0881 863.594L63.8392 888.671C67.2901 890.795 69.3923 894.557 69.3923 898.609V950.116C69.3923 953.965 67.4946 957.566 64.32 959.741L23.5467 987.684C19.7211 990.306 14.706 990.413 10.7718 987.957L-34.5101 959.692C-37.925 957.56 -40 953.819 -40 949.794V898.925C-40 894.703 -37.7195 890.81 -34.0367 888.746Z" stroke="white" stroke-opacity="0.2" stroke-width="2.91713"/>
<path d="M-34.0367 -21.2541L11.2675 -46.6475C14.9598 -48.7171 19.4833 -48.6248 23.0881 -46.4065L63.8392 -21.3289C67.2901 -19.2052 69.3923 -15.4433 69.3923 -11.3913V40.1161C69.3923 43.9647 67.4946 47.5657 64.32 49.7413L23.5467 77.6839C19.7211 80.3056 14.706 80.4129 10.7718 77.9571L-34.5101 49.692C-37.925 47.5604 -40 43.8191 -40 39.7936V-11.0755C-40 -15.2973 -37.7195 -19.1898 -34.0367 -21.2541Z" stroke="white" stroke-opacity="0.2" stroke-width="2.91713"/>
<g filter="url(#filter0_f_417_17817)">
<path d="M25.9633 876.746L71.2675 851.352C74.9598 849.283 79.4833 849.375 83.0881 851.594L123.839 876.671C127.29 878.795 129.392 882.557 129.392 886.609V938.116C129.392 941.965 127.495 945.566 124.32 947.741L83.5467 975.684C79.7211 978.306 74.706 978.413 70.7718 975.957L25.4899 947.692C22.075 945.56 20 941.819 20 937.794V886.925C20 882.703 22.2805 878.81 25.9633 876.746Z" fill="white" fill-opacity="0.06"/>
</g>
<g filter="url(#filter1_f_417_17817)">
<path d="M585.963 18.7459L631.267 -6.64751C634.96 -8.71707 639.483 -8.62483 643.088 -6.40646L683.839 18.6711C687.29 20.7948 689.392 24.5567 689.392 28.6087V80.1161C689.392 83.9647 687.495 87.5657 684.32 89.7413L643.547 117.684C639.721 120.306 634.706 120.413 630.772 117.957L585.49 89.692C582.075 87.5604 580 83.8191 580 79.7936V28.9245C580 24.7027 582.281 20.8102 585.963 18.7459Z" fill="white" fill-opacity="0.06"/>
</g>
</g>
<defs>
<filter id="filter0_f_417_17817" x="16" y="845.863" width="117.392" height="135.864" filterUnits="userSpaceOnUse" color-interpolation-filters="sRGB">
<feFlood flood-opacity="0" result="BackgroundImageFix"/>
<feBlend mode="normal" in="SourceGraphic" in2="BackgroundImageFix" result="shape"/>
<feGaussianBlur stdDeviation="2" result="effect1_foregroundBlur_417_17817"/>
</filter>
<filter id="filter1_f_417_17817" x="576" y="-12.1372" width="117.392" height="135.864" filterUnits="userSpaceOnUse" color-interpolation-filters="sRGB">
<feFlood flood-opacity="0" result="BackgroundImageFix"/>
<feBlend mode="normal" in="SourceGraphic" in2="BackgroundImageFix" result="shape"/>
<feGaussianBlur stdDeviation="2" result="effect1_foregroundBlur_417_17817"/>
</filter>
<clipPath id="clip0_417_17817">
<path d="M0 42C0 18.8041 18.804 0 42 0H668V981H42C18.804 981 0 962.196 0 939V42Z" fill="white"/>
</clipPath>
</defs>
</svg>
