<svg width="1103" height="169" viewBox="0 0 1103 169" fill="none" xmlns="http://www.w3.org/2000/svg">
<path d="M0 8.75C0 3.91751 3.91751 0 8.75 0H1094.25C1099.08 0 1103 3.91751 1103 8.75V160.25C1103 165.082 1099.08 169 1094.25 169H8.74999C3.9175 169 0 165.082 0 160.25V8.75Z" fill="#B9CEF8"/>
<path opacity="0.1" d="M988 0.433594H1094C1098.97 0.433594 1103 4.46303 1103 9.43359V52.4336H998C992.477 52.4336 988 47.9564 988 42.4336V0.433594Z" fill="#174EB9"/>
<path opacity="0.15" d="M957 0.433594H1094C1098.97 0.433594 1103 4.46303 1103 9.43359V37.4336H967C961.477 37.4336 957 32.9564 957 27.4336V0.433594Z" fill="#1D61E7"/>
</svg>
