<svg width="20" height="16" viewBox="0 0 20 16" fill="none" xmlns="http://www.w3.org/2000/svg">
<path d="M0.795375 6.02325L0.397125 6.4215L0 6.02325L0.397125 5.625L0.795375 6.02325ZM19.3579 15.0233C19.3579 15.1724 19.2986 15.3155 19.1931 15.421C19.0876 15.5265 18.9446 15.5858 18.7954 15.5858C18.6462 15.5858 18.5031 15.5265 18.3976 15.421C18.2921 15.3155 18.2329 15.1724 18.2329 15.0233H19.3579ZM6.02212 12.0465L0.397125 6.4215L1.19363 5.625L6.81862 11.25L6.02212 12.0465ZM0.397125 5.625L6.02212 0L6.81862 0.7965L1.19363 6.4215L0.397125 5.625ZM0.795375 5.46075H12.0454V6.58575H0.795375V5.46075ZM19.3579 12.7733V15.0233H18.2329V12.7733H19.3579ZM12.0454 5.46075C13.9848 5.46075 15.8447 6.23117 17.2161 7.60253C18.5875 8.97389 19.3579 10.8339 19.3579 12.7733H18.2329C18.2329 11.1322 17.581 9.55841 16.4206 8.39803C15.2602 7.23765 13.6864 6.58575 12.0454 6.58575V5.46075Z" fill="black"/>
</svg>
