<svg width="143" height="143" viewBox="0 0 143 143" fill="none" xmlns="http://www.w3.org/2000/svg">
<path d="M142.13 0.0358132C142.715 18.1621 135.931 36.6971 121.854 50.7735C109.255 63.3722 93.0849 70.1258 76.8327 70.9854C93.1157 71.2891 109.136 77.5306 121.373 89.7672C135.003 103.397 141.195 121.722 140.028 139.874C121.875 141.042 103.551 134.85 89.9204 121.22C76.3108 107.61 70.1175 89.3208 71.2608 71.1946C71.1908 71.1991 71.1208 71.2029 71.0508 71.2071C71.6139 89.308 64.8298 107.809 50.774 121.865C36.6975 135.941 18.1632 142.725 0.0370104 142.139C-0.550891 124.011 6.23346 105.473 20.3118 91.3941C32.5694 79.1365 48.2076 72.4083 64.0129 71.2609C48.3357 70.558 33.0196 64.3355 21.2212 52.5371C7.58987 38.9057 1.39909 20.5791 2.56782 2.42437C20.7223 1.25583 39.0479 7.44796 52.6792 21.0791C64.2227 32.6227 70.4318 47.5326 71.3533 62.8544C72.7385 47.4447 79.4328 32.269 91.3912 20.3106C105.468 6.23385 124.003 -0.550206 142.13 0.0358132ZM72.0114 71.0683C71.7885 71.0641 71.5657 71.0581 71.3429 71.0517C71.3418 71.0703 71.3407 71.089 71.3395 71.1076C71.5634 71.0935 71.7874 71.0802 72.0114 71.0683Z" fill="#7A1C23"/>
</svg>
