<svg width="41" height="41" viewBox="0 0 41 41" fill="none" xmlns="http://www.w3.org/2000/svg">
<g clip-path="url(#clip0_1188_25682)">
<mask id="mask0_1188_25682" style="mask-type:luminance" maskUnits="userSpaceOnUse" x="4" y="5" width="28" height="33">
<path d="M7.05705 5.02332C5.39813 5.02332 4.04102 6.38066 4.04102 8.03947V34.4056C4.04102 36.0645 5.39813 37.4219 7.05705 37.4219H28.354C30.013 37.4219 31.3702 36.0645 31.3702 34.4056V12.4869C31.3702 11.833 31.0935 11.2095 30.6086 10.771L24.9148 5.62119C24.4895 5.23635 23.9362 5.02332 23.3627 5.02332H7.05705Z" fill="white"/>
</mask>
<g mask="url(#mask0_1188_25682)">
<path d="M23.3627 5.02443H7.05692C5.39823 5.02443 4.04102 6.38164 4.04102 8.04056V34.4067C4.04102 36.0656 5.39823 37.4229 7.05692 37.4229H28.354C30.0129 37.4229 31.3702 36.0656 31.3702 34.4067V12.488C31.3702 11.8341 31.0935 11.2106 30.6084 10.772L24.9148 5.62217C24.4894 5.23745 23.9362 5.02443 23.3627 5.02443Z" fill="#E7E7E8"/>
<mask id="mask1_1188_25682" style="mask-type:luminance" maskUnits="userSpaceOnUse" x="24" y="10" width="8" height="7">
<path d="M24.7715 10.3745H31.3684V16.1255H24.7715V10.3745Z" fill="white"/>
</mask>
<g mask="url(#mask1_1188_25682)">
<g opacity="0.0700073">
<path d="M24.7715 11.601L31.3685 16.125V10.375L24.7715 11.601Z" fill="black"/>
</g>
</g>
<path d="M23.7656 4.58172L32.4163 12.4058H26.8513C25.1471 12.4058 23.7656 11.0243 23.7656 9.3202V9.15497V4.58172Z" fill="#D2D3D4"/>
<mask id="mask2_1188_25682" style="mask-type:luminance" maskUnits="userSpaceOnUse" x="5" y="6" width="5" height="4">
<path d="M5.05469 6.03095H9.66972V9.55762H5.05469V6.03095Z" fill="white"/>
</mask>
<g mask="url(#mask2_1188_25682)">
<g opacity="0.610001">
<path d="M5.59221 9.54235C5.22505 9.46353 4.99107 9.10225 5.07 8.73475C5.46571 6.89066 7.28794 5.71216 9.13225 6.10786C9.49942 6.18669 9.73328 6.54796 9.65446 6.91547C9.57563 7.28297 9.21402 7.51638 8.84686 7.43767C7.73596 7.19928 6.6381 7.90914 6.3997 9.02015C6.32099 9.38765 5.95937 9.62106 5.59221 9.54235Z" fill="white"/>
</g>
</g>
<mask id="mask3_1188_25682" style="mask-type:luminance" maskUnits="userSpaceOnUse" x="-5" y="-4" width="27" height="27">
<path d="M-4.01758 -3.15438H21.2071V22.0703H-4.01758V-3.15438Z" fill="white"/>
</mask>
<g mask="url(#mask3_1188_25682)">
<g opacity="0.649994">
<path d="M21.2065 9.45831C21.2065 16.4238 15.56 22.0703 8.59454 22.0703C1.62907 22.0703 -4.01758 16.4238 -4.01758 9.45831C-4.01758 2.49283 1.62907 -3.15381 8.59454 -3.15381C15.56 -3.15381 21.2065 2.49283 21.2065 9.45831Z" fill="white"/>
</g>
</g>
</g>
<mask id="mask4_1188_25682" style="mask-type:luminance" maskUnits="userSpaceOnUse" x="-339" y="-262" width="407" height="525">
<path d="M-338.621 -261.489H67.9605V262.762H-338.621V-261.489Z" fill="white"/>
</mask>
<g mask="url(#mask4_1188_25682)">
<mask id="mask5_1188_25682" style="mask-type:luminance" maskUnits="userSpaceOnUse" x="7" y="16" width="21" height="14">
<path d="M7.70312 16.1255H27.5076V29.7407H7.70312V16.1255Z" fill="white"/>
</mask>
<g mask="url(#mask5_1188_25682)">
<g opacity="0.270004">
<path d="M26.4571 18.3374H8.75422C8.17607 18.3374 7.70312 17.8645 7.70312 17.2864V17.1779C7.70312 16.5998 8.17607 16.1268 8.75422 16.1268H26.4571C27.0352 16.1268 27.508 16.5998 27.508 17.1779V17.2864C27.508 17.8645 27.0352 18.3374 26.4571 18.3374Z" fill="#323139"/>
<path d="M26.4571 24.0376H8.75422C8.17607 24.0376 7.70312 23.5647 7.70312 22.9867V22.8781C7.70312 22.3001 8.17607 21.8271 8.75422 21.8271H26.4571C27.0352 21.8271 27.508 22.3001 27.508 22.8781V22.9867C27.508 23.5647 27.0352 24.0376 26.4571 24.0376Z" fill="#323139"/>
<path d="M26.4571 29.7427H8.75422C8.17607 29.7427 7.70312 29.2697 7.70312 28.6918V28.5832C7.70312 28.0052 8.17607 27.5322 8.75422 27.5322H26.4571C27.0352 27.5322 27.508 28.0052 27.508 28.5832V28.6918C27.508 29.2697 27.0352 29.7427 26.4571 29.7427Z" fill="#323139"/>
</g>
</g>
</g>
<mask id="mask6_1188_25682" style="mask-type:luminance" maskUnits="userSpaceOnUse" x="10" y="2" width="28" height="33">
<path d="M13.0845 2.50843C11.4257 2.50843 10.0684 3.86563 10.0684 5.52455V31.8907C10.0684 33.5495 11.4257 34.9067 13.0845 34.9067H34.3816C36.0404 34.9067 37.3976 33.5495 37.3976 31.8907V9.97197C37.3976 9.31794 37.1209 8.69462 36.636 8.25588L30.9421 3.10616C30.517 2.72144 29.9637 2.50843 29.39 2.50843H13.0845Z" fill="white"/>
</mask>
<g mask="url(#mask6_1188_25682)">
<path d="M29.39 2.50978H13.0844C11.4256 2.50978 10.0684 3.86699 10.0684 5.52591V31.8921C10.0684 33.551 11.4256 34.9082 13.0844 34.9082H34.3814C36.0403 34.9082 37.3975 33.551 37.3975 31.8921V9.97333C37.3975 9.31941 37.1208 8.69596 36.6358 8.25733L30.9421 3.10752C30.5167 2.72281 29.9635 2.50978 29.39 2.50978Z" fill="#F2F2F2"/>
<mask id="mask7_1188_25682" style="mask-type:luminance" maskUnits="userSpaceOnUse" x="30" y="7" width="8" height="7">
<path d="M30.8027 7.86004H37.3997V13.6099H30.8027V7.86004Z" fill="white"/>
</mask>
<g mask="url(#mask7_1188_25682)">
<g opacity="0.0700073">
<path d="M30.8027 9.08528L37.3997 13.6094V7.85922L30.8027 9.08528Z" fill="black"/>
</g>
</g>
<path d="M29.7949 2.06756L38.4456 9.8916H32.8806C31.1764 9.8916 29.7949 8.51015 29.7949 6.80604V6.64081V2.06756Z" fill="#E7E7E8"/>
<mask id="mask8_1188_25682" style="mask-type:luminance" maskUnits="userSpaceOnUse" x="11" y="3" width="5" height="5">
<path d="M11.082 3.515H15.6971V7.04053H11.082V3.515Z" fill="white"/>
</mask>
<g mask="url(#mask8_1188_25682)">
<g opacity="0.610001">
<path d="M11.6196 7.02282C11.2524 6.944 11.0184 6.58272 11.0973 6.21522C11.4931 4.37113 13.3153 3.19263 15.1597 3.58833C15.5268 3.66716 15.7606 4.02843 15.6818 4.39593C15.603 4.76344 15.2414 4.99685 14.8742 4.91814C13.7633 4.67974 12.6654 5.38961 12.4272 6.50062C12.3483 6.86812 11.9867 7.10153 11.6196 7.02282Z" fill="white"/>
</g>
</g>
<mask id="mask9_1188_25682" style="mask-type:luminance" maskUnits="userSpaceOnUse" x="2" y="-6" width="26" height="26">
<path d="M2.01172 -5.66414H27.2353V19.5605H2.01172V-5.66414Z" fill="white"/>
</mask>
<g mask="url(#mask9_1188_25682)">
<g opacity="0.639999">
<path d="M27.2358 6.94854C27.2358 13.914 21.5893 19.5605 14.6238 19.5605C7.65837 19.5605 2.01172 13.914 2.01172 6.94854C2.01172 -0.0169315 7.65837 -5.66358 14.6238 -5.66358C21.5893 -5.66358 27.2358 -0.0169315 27.2358 6.94854Z" fill="white"/>
</g>
</g>
</g>
<mask id="mask10_1188_25682" style="mask-type:luminance" maskUnits="userSpaceOnUse" x="13" y="13" width="21" height="15">
<path d="M13.7285 13.6078H33.5341V27.2241H13.7285V13.6078Z" fill="white"/>
</mask>
<g mask="url(#mask10_1188_25682)">
<g opacity="0.520004">
<path d="M32.4824 15.8179H14.7795C14.2015 15.8179 13.7285 15.3449 13.7285 14.7669V14.6584C13.7285 14.0802 14.2015 13.6074 14.7795 13.6074H32.4824C33.0605 13.6074 33.5333 14.0802 33.5333 14.6584V14.7669C33.5333 15.3449 33.0605 15.8179 32.4824 15.8179Z" fill="black"/>
<path d="M32.4824 21.5205H14.7795C14.2015 21.5205 13.7285 21.0477 13.7285 20.4696V20.3611C13.7285 19.783 14.2015 19.31 14.7795 19.31H32.4824C33.0605 19.31 33.5333 19.783 33.5333 20.3611V20.4696C33.5333 21.0477 33.0605 21.5205 32.4824 21.5205Z" fill="black"/>
<path d="M32.4824 27.2231H14.7795C14.2015 27.2231 13.7285 26.7502 13.7285 26.1723V26.0637C13.7285 25.4856 14.2015 25.0127 14.7795 25.0127H32.4824C33.0605 25.0127 33.5333 25.4856 33.5333 26.0637V26.1723C33.5333 26.7502 33.0605 27.2231 32.4824 27.2231Z" fill="black"/>
</g>
</g>
</g>
<defs>
<clipPath id="clip0_1188_25682">
<rect width="40.2445" height="40.2445" fill="white"/>
</clipPath>
</defs>
</svg>
